<?xml version="1.0" encoding="UTF-8"?>
<svg width="30px" height="30px" viewBox="0 0 30 30" version="1.1" xmlns="http://www.w3.org/2000/svg" xmlns:xlink="http://www.w3.org/1999/xlink">
    <!-- Generator: Sketch 53.2 (72643) - https://sketchapp.com -->
    <title>Icon/Social Media/Facebook</title>
    <desc>Created with Sketch.</desc>
    <defs>
        <rect id="path-1" x="0" y="0" width="36" height="36"></rect>
        <path d="M18,33 C9.72864,33 3,26.2704 3,18 C3,9.72864 9.72864,3 18,3 C26.2704,3 33,9.72864 33,18 C33,26.2704 26.2704,33 18,33 Z M16.0161911,26.1951228 L19.0432045,26.1951228 L19.0432045,18.7033125 L21.568883,18.7033125 L21.9469835,15.7708795 L19.0432045,15.7708795 L19.0432045,13.9031384 C19.0432045,13.0566295 19.2775929,12.4797924 20.4882804,12.4797924 L22.0323562,12.4790558 L22.0323562,9.86520536 C21.7645259,9.82955357 20.8456085,9.75 19.7764232,9.75 C17.5443562,9.75 16.0161911,11.1125022 16.0161911,13.614683 L16.0161911,15.7708795 L13.5000147,15.7708795 L13.5000147,18.7033125 L16.0161911,18.7033125 L16.0161911,26.1951228 Z" id="path-3"></path>
    </defs>
    <g id="Symbols" stroke="none" stroke-width="1" fill="none" fill-rule="evenodd">
        <g id="Headers-&amp;-Footers/Footer/Mobile" transform="translate(-35.000000, -276.000000)">
            <g id="Icon/Social-Media/Facebook" transform="translate(32.000000, 273.000000)">
                <mask id="mask-2" fill="white">
                    <use xlink:href="#path-1"></use>
                </mask>
                <g id="Bounds" opacity="0"></g>
                <mask id="mask-4" fill="white">
                    <use xlink:href="#path-3"></use>
                </mask>
                <use id="Icon" fill="#0B8ED5" fill-rule="nonzero" xlink:href="#path-3"></use>
            </g>
        </g>
    </g>
</svg>