<?xml version="1.0" encoding="UTF-8"?>
<svg width="30px" height="30px" viewBox="0 0 30 30" version="1.1" xmlns="http://www.w3.org/2000/svg" xmlns:xlink="http://www.w3.org/1999/xlink">
    <!-- Generator: Sketch 53.2 (72643) - https://sketchapp.com -->
    <title>Icon/Social Media/LinkedIn</title>
    <desc>Created with Sketch.</desc>
    <defs>
        <rect id="path-1" x="0" y="0" width="36" height="36"></rect>
        <path d="M18,33 C9.7296,33 3,26.2704 3,18 C3,9.7296 9.7296,3 18,3 C26.2704,3 33,9.7296 33,18 C33,26.2704 26.2704,33 18,33 Z M25.5078117,23.9845471 L25.5078117,19.0440714 C25.5078117,16.6190519 24.9844573,14.7534306 22.1497194,14.7534306 C20.7877922,14.7534306 19.8746417,15.4999937 19.5008359,16.2080228 L19.4633505,16.2080228 L19.4633505,14.9772947 L16.7784233,14.9772947 L16.7784233,23.9845471 L19.5754136,23.9845471 L19.5754136,19.5287607 C19.5754136,18.3539985 19.7990155,17.2161976 21.2555738,17.2161976 C22.6911612,17.2161976 22.7102971,18.5597752 22.7102971,19.6042558 L22.7102971,23.9845471 L25.5078117,23.9845471 Z M12.2229466,23.984534 L15.0225583,23.984534 L15.0225583,14.9772816 L12.2229466,14.9772816 L12.2229466,23.984534 Z M13.6233684,10.5000262 C12.7260772,10.5000262 11.9999607,11.2273223 11.9999607,12.1226476 C11.9999607,13.0187592 12.7260772,13.7460553 13.6233684,13.7460553 C14.5184316,13.7460553 15.2457277,13.0187592 15.2457277,12.1226476 C15.2457277,11.2273223 14.5184316,10.5000262 13.6233684,10.5000262" id="path-3"></path>
    </defs>
    <g id="Symbols" stroke="none" stroke-width="1" fill="none" fill-rule="evenodd">
        <g id="Headers-&amp;-Footers/Footer/Mobile" transform="translate(-139.000000, -276.000000)">
            <g id="Icon/Social-Media/LinkedIn" transform="translate(136.000000, 273.000000)">
                <mask id="mask-2" fill="white">
                    <use xlink:href="#path-1"></use>
                </mask>
                <g id="Bounds" opacity="0"></g>
                <mask id="mask-4" fill="white">
                    <use xlink:href="#path-3"></use>
                </mask>
                <use id="Icon" fill="#0B8ED5" fill-rule="nonzero" xlink:href="#path-3"></use>
            </g>
        </g>
    </g>
</svg>