<svg xmlns="http://www.w3.org/2000/svg" xmlns:xlink="http://www.w3.org/1999/xlink" width="30px" height="30px" viewBox="0 0 40 40">
    <defs>
        <path id="a" d="M0 0h48v48H0z"/>
        <path id="b" d="M24 44C12.973 44 4 35.027 4 24S12.973 4 24 4s20 8.973 20 20-8.973 20-20 20z"/>
    </defs>
    <g fill="none" fill-rule="evenodd" transform="translate(-4 -4)">
        <mask id="c" fill="#fff">
            <use xlink:href="#b"/>
        </mask>
        <use fill="#0B8ED5" fill-rule="nonzero" xlink:href="#b"/>
        <g fill="#FFF" fill-rule="nonzero" mask="url(#c)">
            <path d="M21.589 33.3c7.93 0 12.265-6.465 12.265-12.068 0-.185 0-.37-.009-.545a8.754 8.754 0 0 0 2.155-2.2c-.769.335-1.6.564-2.476.67a4.252 4.252 0 0 0 1.895-2.35 8.817 8.817 0 0 1-2.736 1.03 4.323 4.323 0 0 0-3.147-1.337c-2.378 0-4.309 1.9-4.309 4.24 0 .334.036.66.117.967a12.297 12.297 0 0 1-8.887-4.433 4.202 4.202 0 0 0-.58 2.129c0 1.469.759 2.77 1.921 3.527a4.288 4.288 0 0 1-1.949-.528v.053c0 2.058 1.484 3.764 3.46 4.16a4.364 4.364 0 0 1-1.949.07c.545 1.69 2.137 2.912 4.023 2.947a8.756 8.756 0 0 1-5.355 1.812c-.349 0-.688-.018-1.028-.061a12.153 12.153 0 0 0 6.589 1.917"/>
        </g>
    </g>
</svg>
