<svg width="20" height="20" viewBox="0 0 20 20" fill="none" xmlns="http://www.w3.org/2000/svg">
<path d="M15.7645 2.11286e-05C15.2081 -0.00174358 14.6569 0.107053 14.143 0.320093C13.629 0.533133 13.1625 0.846169 12.7705 1.24102L1.15548 12.855C1.00649 13.0042 0.908487 13.1968 0.875478 13.405L0.0124775 18.843C-0.0124022 18.999 3.86648e-05 19.1587 0.0487806 19.309C0.0975225 19.4593 0.181178 19.5959 0.292893 19.7076C0.404608 19.8193 0.541203 19.903 0.691485 19.9517C0.841767 20.0005 1.00146 20.0129 1.15748 19.988L6.60048 19.125C6.80875 19.092 7.00125 18.994 7.15048 18.845L18.7595 7.23002C19.3517 6.63725 19.7549 5.88215 19.9179 5.06024C20.081 4.23832 19.9966 3.38651 19.6754 2.61255C19.3543 1.8386 18.8108 1.17728 18.1138 0.712246C17.4167 0.247209 16.5974 -0.000650104 15.7595 2.11286e-05H15.7645ZM5.96048 17.2L2.20048 17.8L2.80048 14.043L11.1905 5.65202L14.3525 8.81402L5.96048 17.2ZM17.3455 5.81602L15.7655 7.40002L12.6005 4.23502L14.1815 2.65502C14.6073 2.24857 15.1733 2.02178 15.762 2.02178C16.3506 2.02178 16.9167 2.24857 17.3425 2.65502C17.5502 2.8625 17.7149 3.10888 17.8274 3.38007C17.9398 3.65126 17.9976 3.94195 17.9976 4.23552C17.9976 4.52909 17.9398 4.81978 17.8274 5.09097C17.7149 5.36217 17.5502 5.60854 17.3425 5.81602H17.3455Z" fill="#111111"/>
</svg>
