<svg width="16" height="31" viewBox="0 0 16 31" fill="none" xmlns="http://www.w3.org/2000/svg">
<path d="M1.22866 1.49547L0.0664062 2.92613L0.377461 3.29868C0.791501 3.79281 1.13618 4.20157 1.85707 5.05531C2.48759 5.80299 2.74821 6.11085 3.29676 6.7628C3.48171 6.9827 3.75703 7.30868 3.90625 7.48719C4.18578 7.81575 4.54098 8.24003 5.05169 8.84541C5.20722 9.0291 5.46363 9.33179 5.61916 9.51806C5.77469 9.70174 6.04581 10.0225 6.21815 10.2295C6.39259 10.4339 6.6427 10.7314 6.77511 10.8892C6.90752 11.047 7.14921 11.3316 7.31105 11.5231C7.47288 11.7171 7.85539 12.1698 8.16224 12.532C8.4691 12.8942 8.8411 13.3392 8.99243 13.5177C9.14165 13.6962 9.39806 13.9989 9.55989 14.1904C9.72172 14.3818 9.95291 14.6586 10.0748 14.8035L10.2955 15.0674L10.0748 15.3313C9.95291 15.4761 9.72172 15.753 9.55989 15.9444C9.39806 16.1359 9.14165 16.4385 8.99243 16.6171C8.8411 16.7956 8.4691 17.2405 8.16224 17.6027C7.85539 17.9649 7.47288 18.4177 7.31105 18.6117C7.14921 18.8032 6.90752 19.0877 6.77511 19.2455C6.6427 19.4034 6.39259 19.7009 6.21815 19.9053C6.04581 20.1122 5.77469 20.4304 5.61916 20.6167C5.46363 20.8004 5.20722 21.1057 5.05169 21.2894C4.89617 21.4756 4.63555 21.7835 4.47372 21.9749C4.31189 22.1664 4.05758 22.4691 3.90625 22.6476C3.75703 22.8287 3.49222 23.1417 3.31777 23.3461C2.34678 24.4974 2.06094 24.8389 1.57334 25.4158C0.877671 26.2411 0.675906 26.4791 0.377461 26.8361L0.0664062 27.2086L1.22866 28.6393C1.86968 29.4284 2.39932 30.07 2.40773 30.0674C2.41613 30.0622 2.52542 29.938 2.64942 29.788C3.16224 29.1774 3.58889 28.6703 4.57881 27.4984C4.87935 27.1414 5.25766 26.6938 5.4195 26.5024C5.72845 26.135 6.14249 25.6434 6.59646 25.1053C6.74568 24.9268 6.98738 24.6396 7.1324 24.4689C7.27742 24.2981 7.65153 23.8558 7.96258 23.4884C8.27574 23.1184 8.66245 22.6605 8.82429 22.4665C8.98612 22.275 9.24673 21.9646 9.40226 21.7809C9.55779 21.5946 9.80789 21.2997 9.95922 21.1186C10.1084 20.9401 10.3649 20.6374 10.5267 20.446C11.1488 19.7086 11.4199 19.3878 11.7247 19.0256C11.897 18.8187 12.2774 18.3711 12.5654 18.0296C12.8554 17.6881 13.2274 17.2457 13.3955 17.0465C13.5637 16.8473 13.8096 16.5576 13.942 16.3997C14.0744 16.2419 14.3266 15.9444 14.4989 15.7374C14.6734 15.5305 14.8709 15.295 14.9403 15.2148L15.0664 15.0674L14.9403 14.9199C14.8709 14.8397 14.6776 14.6095 14.5094 14.4103C14.024 13.8308 13.7339 13.4893 12.8386 12.4285C12.3762 11.8827 11.8655 11.2773 11.7036 11.0858C11.3758 10.6952 10.9701 10.214 10.5267 9.68881C10.3649 9.49736 10.1084 9.19467 9.95922 9.01616C9.80789 8.83506 9.56199 8.54531 9.41277 8.3668C9.26145 8.18829 8.99663 7.87525 8.82429 7.66828C8.64984 7.46132 8.27784 7.01892 7.99411 6.68519C7.71037 6.35145 7.35098 5.92458 7.19545 5.7409C7.03992 5.55462 6.77511 5.24159 6.60697 5.04238C6.32113 4.70347 6.13408 4.48098 5.41739 3.63241C5.25556 3.44097 4.99285 3.12534 4.83101 2.93648C4.66918 2.74504 4.41487 2.43976 4.26355 2.26125C4.11433 2.08274 3.74863 1.65069 3.45438 1.30402C3.16014 0.954765 2.80705 0.535655 2.67044 0.372668C2.53383 0.209681 2.41403 0.0725645 2.40773 0.0673903C2.39932 0.0648032 1.86968 0.706403 1.22866 1.49547Z" fill="#006DC1"/>
</svg>
