<?xml version="1.0" standalone="no"?>
<!DOCTYPE svg PUBLIC "-//W3C//DTD SVG 20010904//EN"
 "http://www.w3.org/TR/2001/REC-SVG-20010904/DTD/svg10.dtd">
<svg version="1.0" xmlns="http://www.w3.org/2000/svg"
 width="860.000000pt" height="1242.000000pt" viewBox="0 0 860.000000 1242.000000"
 preserveAspectRatio="xMidYMid meet">

<g transform="translate(0.000000,1242.000000) scale(0.100000,-0.100000)"
fill="#000000" stroke="none">
<path d="M1281 11456 l-553 -553 148 -144 c197 -191 361 -349 704 -679 300
-289 424 -408 685 -660 88 -85 219 -211 290 -280 133 -127 302 -291 545 -525
74 -71 196 -188 270 -260 74 -71 203 -195 285 -275 83 -79 202 -194 265 -255
63 -61 178 -171 255 -245 77 -75 259 -250 405 -390 146 -140 323 -312 395
-381 71 -69 193 -186 270 -260 77 -74 187 -181 245 -237 l105 -102 -105 -102
c-58 -56 -168 -163 -245 -237 -77 -74 -199 -191 -270 -260 -72 -69 -249 -241
-395 -381 -146 -140 -328 -315 -405 -390 -77 -74 -192 -184 -255 -245 -63 -61
-182 -176 -265 -255 -82 -80 -211 -203 -285 -275 -74 -71 -196 -189 -270 -260
-74 -72 -198 -191 -275 -265 -77 -74 -198 -191 -270 -260 -71 -70 -197 -191
-280 -270 -462 -445 -598 -577 -830 -800 -331 -319 -427 -411 -569 -549 l-148
-144 553 -553 c305 -305 557 -553 561 -552 4 2 56 50 115 108 244 236 447 432
918 885 143 138 323 311 400 385 147 142 344 332 560 540 71 69 186 180 255
246 69 66 247 237 395 379 149 143 333 320 410 395 77 74 201 194 275 265 74
72 193 186 265 256 71 69 193 186 270 260 296 285 425 409 570 549 82 80 263
253 400 385 138 132 315 303 395 380 80 77 197 189 260 250 63 61 183 176 265
256 83 80 177 171 210 202 l60 57 -60 57 c-33 31 -125 120 -205 197 -231 224
-369 356 -795 766 -220 211 -463 445 -540 519 -156 151 -349 337 -560 540 -77
74 -199 191 -270 260 -72 70 -189 182 -260 251 -72 69 -198 190 -280 270 -83
80 -260 251 -395 380 -135 129 -306 294 -380 365 -74 72 -200 193 -280 270
-136 131 -225 217 -566 545 -77 74 -202 196 -279 269 -77 74 -198 192 -270
261 -71 69 -245 236 -385 370 -140 135 -308 297 -373 360 -65 63 -122 116
-125 118 -4 1 -256 -247 -561 -552z"/>
</g>
</svg>
