<svg width="36" height="36" viewBox="0 0 36 36" fill="none" xmlns="http://www.w3.org/2000/svg">
<circle cx="18" cy="18" r="18" fill="#262626"/>
<path d="M14.713 19.1382C14.6513 19.0767 14.6021 19.0031 14.5682 18.9218C14.5343 18.8404 14.5165 18.7529 14.5158 18.6644C14.515 18.5759 14.5314 18.4881 14.5639 18.4062C14.5963 18.3243 14.6443 18.2498 14.705 18.1872C14.7657 18.1246 14.8378 18.0751 14.9172 18.0416C14.9967 18.0081 15.0817 17.9912 15.1676 17.992C15.2534 17.9928 15.3381 18.0112 15.417 18.0461C15.4958 18.081 15.5671 18.1318 15.6267 18.1955L17.1085 19.7242V12.0002C17.1085 11.8234 17.1766 11.6538 17.2977 11.5288C17.4189 11.4037 17.5833 11.3335 17.7547 11.3335C17.9261 11.3335 18.0904 11.4037 18.2116 11.5288C18.3328 11.6538 18.4009 11.8234 18.4009 12.0002V19.7242L19.8826 18.1955C20.0045 18.0741 20.1677 18.0069 20.3371 18.0084C20.5066 18.0099 20.6686 18.08 20.7885 18.2036C20.9083 18.3272 20.9762 18.4944 20.9777 18.6692C20.9792 18.844 20.914 19.0124 20.7963 19.1382L18.2115 21.8048C18.1514 21.8666 18.08 21.9155 18.0015 21.9488C17.9234 21.9827 17.8394 22.0002 17.7547 22.0002C17.6699 22.0002 17.586 21.9827 17.5078 21.9488C17.4293 21.9155 17.358 21.8666 17.2978 21.8048L14.713 19.1382ZM24.2167 18.0002C24.0453 18.0002 23.8809 18.0704 23.7597 18.1954C23.6385 18.3204 23.5705 18.49 23.5705 18.6668V23.3335H11.9389V18.6668C11.9389 18.49 11.8708 18.3204 11.7496 18.1954C11.6284 18.0704 11.4641 18.0002 11.2927 18.0002C11.1213 18.0002 10.9569 18.0704 10.8358 18.1954C10.7146 18.3204 10.6465 18.49 10.6465 18.6668V24.0002C10.6465 24.177 10.7146 24.3465 10.8358 24.4716C10.9569 24.5966 11.1213 24.6668 11.2927 24.6668H24.2167C24.388 24.6668 24.5524 24.5966 24.6736 24.4716C24.7948 24.3465 24.8629 24.177 24.8629 24.0002V18.6668C24.8629 18.49 24.7948 18.3204 24.6736 18.1954C24.5524 18.0704 24.388 18.0002 24.2167 18.0002Z" fill="white"/>
</svg>
