<?xml version="1.0" encoding="UTF-8"?>
<!DOCTYPE svg PUBLIC "-//W3C//DTD SVG 1.1//EN" "http://www.w3.org/Graphics/SVG/1.1/DTD/svg11.dtd">
<svg xmlns="http://www.w3.org/2000/svg" version="1.1" width="64px" height="64px" style="shape-rendering:geometricPrecision; text-rendering:geometricPrecision; image-rendering:optimizeQuality; fill-rule:evenodd; clip-rule:evenodd" xmlns:xlink="http://www.w3.org/1999/xlink">
<g><path style="opacity:1" fill="#938cc2" d="M 24.5,-0.5 C 28.8333,-0.5 33.1667,-0.5 37.5,-0.5C 39.1161,4.21211 38.7828,8.71211 36.5,13C 34.5355,13.624 32.8689,13.124 31.5,11.5C 28.7363,12.7612 26.403,14.5946 24.5,17C 22.1527,17.3336 19.8194,17.167 17.5,16.5C 18.9002,15.8999 19.9002,14.8999 20.5,13.5C 20.8333,13.5 21.1667,13.5 21.5,13.5C 22.1667,14.8333 22.8333,14.8333 23.5,13.5C 24.1667,13.5 24.5,13.1667 24.5,12.5C 25.1667,12.5 25.5,12.1667 25.5,11.5C 26.1667,11.5 26.5,11.1667 26.5,10.5C 27.1667,10.5 27.5,10.1667 27.5,9.5C 28.1667,9.5 28.5,9.16667 28.5,8.5C 29.1667,8.5 29.5,8.16667 29.5,7.5C 30.1667,7.5 30.5,7.16667 30.5,6.5C 31.1667,6.5 31.5,6.16667 31.5,5.5C 32.5,5.5 33.5,5.5 34.5,5.5C 34.3398,7.19919 34.5065,8.86586 35,10.5C 35.498,7.51838 35.6646,4.51838 35.5,1.5C 32.8333,1.5 30.1667,1.5 27.5,1.5C 26.9232,0.226712 26.2565,0.226712 25.5,1.5C 26.6405,2.42549 26.6405,3.25883 25.5,4C 27.3588,4.60081 27.6921,5.43414 26.5,6.5C 24.8516,4.54409 24.1849,2.21076 24.5,-0.5 Z M 27.5,1.5 C 30.1667,1.5 32.8333,1.5 35.5,1.5C 35.6646,4.51838 35.498,7.51838 35,10.5C 34.5065,8.86586 34.3398,7.19919 34.5,5.5C 33.5,5.5 32.5,5.5 31.5,5.5C 31.631,4.76109 31.4643,4.09442 31,3.5C 29.6976,2.9152 28.531,2.24853 27.5,1.5 Z"/></g>
<g><path style="opacity:0.894" fill="#98adcb" d="M 27.5,1.5 C 28.531,2.24853 29.6976,2.9152 31,3.5C 31.4643,4.09442 31.631,4.76109 31.5,5.5C 30.8333,5.5 30.5,5.83333 30.5,6.5C 29.8333,6.5 29.5,6.83333 29.5,7.5C 28.8333,7.5 28.5,7.83333 28.5,8.5C 27.8333,8.5 27.5,8.83333 27.5,9.5C 26.8333,9.5 26.5,9.83333 26.5,10.5C 25.8333,10.5 25.5,10.8333 25.5,11.5C 24.8333,11.5 24.5,11.8333 24.5,12.5C 23.8333,12.5 23.5,12.8333 23.5,13.5C 22.8333,13.5 22.1667,13.5 21.5,13.5C 21.1583,12.6618 20.4916,12.3284 19.5,12.5C 18.791,11.596 17.791,11.2627 16.5,11.5C 17.0998,10.1001 18.0998,9.10008 19.5,8.5C 20.1499,8.80393 20.8165,9.13727 21.5,9.5C 22.9397,8.04756 24.6064,7.04756 26.5,6.5C 27.6921,5.43414 27.3588,4.60081 25.5,4C 26.6405,3.25883 26.6405,2.42549 25.5,1.5C 26.2565,0.226712 26.9232,0.226712 27.5,1.5 Z"/></g>
<g><path style="opacity:0.986" fill="#89a4e3" d="M 42.5,36.5 C 43.1098,37.391 43.4431,38.391 43.5,39.5C 41.8984,41.0739 39.8984,41.7406 37.5,41.5C 36.5379,34.5878 36.2045,27.5878 36.5,20.5C 37.5123,25.4325 37.8457,31.7659 37.5,39.5C 38.5,39.5 39.5,39.5 40.5,39.5C 40.8271,29.6522 40.4938,19.9856 39.5,10.5C 39.33,9.17793 39.6634,8.01127 40.5,7C 47.814,4.49655 51.1474,6.99655 50.5,14.5C 49.5,14.5 48.5,14.5 47.5,14.5C 47.7852,12.712 47.4519,11.0453 46.5,9.5C 45.2798,8.28891 44.1131,8.28891 43,9.5C 42.5002,18.4938 42.3336,27.4938 42.5,36.5 Z"/></g>
<g><path style="opacity:0.718" fill="#b5a8b1" d="M 16.5,12.5 C 17.5,12.5 18.5,12.5 19.5,12.5C 19.5,13.1667 19.8333,13.5 20.5,13.5C 19.9002,14.8999 18.9002,15.8999 17.5,16.5C 14.8333,19.8333 11.8333,22.8333 8.5,25.5C 7.76109,25.631 7.09442,25.4643 6.5,25C 7.73834,24.31 7.73834,23.81 6.5,23.5C 6.5,23.1667 6.5,22.8333 6.5,22.5C 7.16667,22.5 7.5,22.1667 7.5,21.5C 8.16667,21.5 8.5,21.1667 8.5,20.5C 9.16667,20.5 9.5,20.1667 9.5,19.5C 10.1667,19.5 10.5,19.1667 10.5,18.5C 11.1667,18.5 11.5,18.1667 11.5,17.5C 12.1667,17.5 12.5,17.1667 12.5,16.5C 13.1667,16.5 13.5,16.1667 13.5,15.5C 14.1667,15.5 14.5,15.1667 14.5,14.5C 15.1667,14.5 15.5,14.1667 15.5,13.5C 16.1667,13.5 16.5,13.1667 16.5,12.5 Z"/></g>
<g><path style="opacity:1" fill="#9c88b0" d="M 39.5,10.5 C 40.4938,19.9856 40.8271,29.6522 40.5,39.5C 39.5,39.5 38.5,39.5 37.5,39.5C 37.8457,31.7659 37.5123,25.4325 36.5,20.5C 36.1667,20.5 35.8333,20.5 35.5,20.5C 34.7237,18.026 33.2237,17.3593 31,18.5C 30.502,21.4816 30.3354,24.4816 30.5,27.5C 32.5138,27.3915 34.1805,28.0582 35.5,29.5C 34.5946,30.9643 34.5946,32.2976 35.5,33.5C 34.8724,35.6616 33.539,37.3282 31.5,38.5C 29.5188,39.1054 29.1854,40.1054 30.5,41.5C 29.5,41.5 28.5,41.5 27.5,41.5C 27.4457,38.033 28.9457,35.3663 32,33.5C 32.4828,32.552 32.6495,31.552 32.5,30.5C 31.5,30.5 30.5,30.5 29.5,30.5C 28.5084,30.6716 27.8417,30.3382 27.5,29.5C 27.2281,25.0983 27.5614,20.7649 28.5,16.5C 31.941,14.9937 35.1076,15.3271 38,17.5C 38.3333,24.5 38.6667,31.5 39,38.5C 39.4998,29.1726 39.6665,19.8393 39.5,10.5 Z M 35.5,20.5 C 35.5,23.5 35.5,26.5 35.5,29.5C 34.1805,28.0582 32.5138,27.3915 30.5,27.5C 30.3354,24.4816 30.502,21.4816 31,18.5C 33.2237,17.3593 34.7237,18.026 35.5,20.5 Z M 35.5,33.5 C 35.5,35.5 35.5,37.5 35.5,39.5C 33.901,39.7678 32.5676,39.4345 31.5,38.5C 33.539,37.3282 34.8724,35.6616 35.5,33.5 Z"/></g>
<g><path style="opacity:1" fill="#8ab2c2" d="M 52.5,42.5 C 53.1667,40.8333 53.8333,39.1667 54.5,37.5C 55.7803,35.8942 55.2803,34.8942 53,34.5C 49.8743,36.3121 46.7077,37.9788 43.5,39.5C 43.4431,38.391 43.1098,37.391 42.5,36.5C 44.371,36.1412 45.871,35.1412 47,33.5C 47.044,27.3272 47.7107,21.3272 49,15.5C 50.4457,20.6452 50.9457,25.9786 50.5,31.5C 57.0653,30.422 59.232,33.0886 57,39.5C 55.7292,40.8825 54.2292,41.8825 52.5,42.5 Z"/></g>
<g><path style="opacity:0.424" fill="#c5c2a8" d="M 35.5,20.5 C 35.8333,20.5 36.1667,20.5 36.5,20.5C 36.2045,27.5878 36.5379,34.5878 37.5,41.5C 35.1667,41.5 32.8333,41.5 30.5,41.5C 29.1854,40.1054 29.5188,39.1054 31.5,38.5C 32.5676,39.4345 33.901,39.7678 35.5,39.5C 35.5,37.5 35.5,35.5 35.5,33.5C 34.5946,32.2976 34.5946,30.9643 35.5,29.5C 35.5,26.5 35.5,23.5 35.5,20.5 Z"/></g>
<g><path style="opacity:1" fill="#9b90a7" d="M 27.5,29.5 C 27.8417,30.3382 28.5084,30.6716 29.5,30.5C 28.3406,32.2503 26.674,33.2503 24.5,33.5C 24.6716,32.5084 24.3382,31.8417 23.5,31.5C 23.7394,29.5328 23.4061,27.6995 22.5,26C 20.6476,25.2274 19.3143,25.7274 18.5,27.5C 17.7784,27.0825 17.2784,26.4158 17,25.5C 16.8213,29.0252 16.3213,32.3586 15.5,35.5C 15.3347,31.8183 15.5014,28.1516 16,24.5C 22.4421,20.6561 26.2754,22.3228 27.5,29.5 Z M 23.5,31.5 C 21.8297,31.7512 20.3297,32.4178 19,33.5C 18.5045,31.5273 18.3379,29.5273 18.5,27.5C 19.3143,25.7274 20.6476,25.2274 22.5,26C 23.4061,27.6995 23.7394,29.5328 23.5,31.5 Z"/></g>
<g><path style="opacity:1" fill="#8d8ccd" d="M 19.5,8.5 C 18.0998,9.10008 17.0998,10.1001 16.5,11.5C 16.5,11.8333 16.5,12.1667 16.5,12.5C 15.8333,12.5 15.5,12.8333 15.5,13.5C 14.8333,13.5 14.5,13.8333 14.5,14.5C 13.8333,14.5 13.5,14.8333 13.5,15.5C 12.8333,15.5 12.5,15.8333 12.5,16.5C 11.8333,16.5 11.5,16.8333 11.5,17.5C 10.8333,17.5 10.5,17.8333 10.5,18.5C 9.83333,18.5 9.5,18.8333 9.5,19.5C 8.83333,19.5 8.5,19.8333 8.5,20.5C 7.83333,20.5 7.5,20.8333 7.5,21.5C 6.83333,21.5 6.5,21.8333 6.5,22.5C 5.16667,22.8333 5.16667,23.1667 6.5,23.5C 7.73834,23.81 7.73834,24.31 6.5,25C 7.09442,25.4643 7.76109,25.631 8.5,25.5C 6.64241,29.7394 3.64241,31.0728 -0.5,29.5C -0.5,27.8333 -0.5,26.1667 -0.5,24.5C 4.96467,19.5364 10.298,14.3697 15.5,9C 16.7932,8.50999 18.1266,8.34332 19.5,8.5 Z"/></g>
<g><path style="opacity:1" fill="#818bd6" d="M 18.5,27.5 C 18.3379,29.5273 18.5045,31.5273 19,33.5C 20.3297,32.4178 21.8297,31.7512 23.5,31.5C 24.3382,31.8417 24.6716,32.5084 24.5,33.5C 21.8121,35.2663 18.9788,36.933 16,38.5C 15.6155,40.1966 15.7822,41.8632 16.5,43.5C 15.8333,44.1667 15.1667,44.8333 14.5,45.5C 13.7659,44.2921 13.4326,42.9587 13.5,41.5C 14.0715,39.64 14.0715,37.9733 13.5,36.5C 13.8417,35.6618 14.5084,35.3284 15.5,35.5C 16.3213,32.3586 16.8213,29.0252 17,25.5C 17.2784,26.4158 17.7784,27.0825 18.5,27.5 Z"/></g>
<g><path style="opacity:1" fill="#8f9ac6" d="M 13.5,36.5 C 14.0715,37.9733 14.0715,39.64 13.5,41.5C 4.64885,39.5647 1.31552,42.8981 3.5,51.5C 2.5,51.5 1.5,51.5 0.5,51.5C 0.737305,50.209 0.403972,49.209 -0.5,48.5C -0.5,46.5 -0.5,44.5 -0.5,42.5C 3.54284,39.3061 8.2095,37.3061 13.5,36.5 Z"/></g>
<g><path style="opacity:1" fill="#9295ce" d="M 54.5,37.5 C 53.8333,39.1667 53.1667,40.8333 52.5,42.5C 45.929,49.8145 37.5956,53.4811 27.5,53.5C 27.5,52.8333 27.5,52.1667 27.5,51.5C 32.336,49.8686 37.336,48.3686 42.5,47C 46.375,43.6193 50.375,40.4526 54.5,37.5 Z"/></g>
<g><path style="opacity:1" fill="#98a1c6" d="M 16.5,43.5 C 17.7189,46.2908 19.0522,49.1241 20.5,52C 22.7972,52.0178 25.1305,51.8511 27.5,51.5C 27.5,52.1667 27.5,52.8333 27.5,53.5C 26.0028,54.3058 24.3361,54.9724 22.5,55.5C 21.5726,57.1128 20.7393,58.7795 20,60.5C 18.1239,61.6087 16.2905,62.6087 14.5,63.5C 11.5,63.5 8.5,63.5 5.5,63.5C 2.42527,60.1591 1.59194,56.4924 3,52.5C 4.7506,54.4899 5.7506,56.8232 6,59.5C 7,60.1667 8,60.8333 9,61.5C 12.3839,61.0238 15.3839,59.6905 18,57.5C 17.3661,53.4225 16.1994,49.4225 14.5,45.5C 15.1667,44.8333 15.8333,44.1667 16.5,43.5 Z M 10.5,54.5 C 12.337,54.6395 12.6704,55.3061 11.5,56.5C 10.7025,56.0431 10.3691,55.3764 10.5,54.5 Z"/></g>
<g><path style="opacity:1" fill="#8493b7" d="M 8.5,51.5 C 15.004,51.1377 16.6707,53.6377 13.5,59C 7.59335,59.7465 5.92668,57.2465 8.5,51.5 Z M 10.5,54.5 C 10.3691,55.3764 10.7025,56.0431 11.5,56.5C 12.6704,55.3061 12.337,54.6395 10.5,54.5 Z"/></g>
</svg>
