<?xml version="1.0" encoding="UTF-8"?>
<!DOCTYPE svg PUBLIC "-//W3C//DTD SVG 1.1//EN" "http://www.w3.org/Graphics/SVG/1.1/DTD/svg11.dtd">
<svg xmlns="http://www.w3.org/2000/svg" version="1.1" width="64px" height="64px" style="shape-rendering:geometricPrecision; text-rendering:geometricPrecision; image-rendering:optimizeQuality; fill-rule:evenodd; clip-rule:evenodd" xmlns:xlink="http://www.w3.org/1999/xlink">
<g><path style="opacity:1" fill="#7aa8de" d="M 14.5,20.5 C 13.5798,19.9326 13.2465,20.5992 13.5,22.5C 25.915,22.8323 37.5816,22.499 48.5,21.5C 44.3815,16.1008 40.3815,10.6008 36.5,5C 37.0981,3.69882 38.0981,2.86549 39.5,2.5C 44.4896,8.46018 49.4896,14.4602 54.5,20.5C 57.4281,21.4841 60.4281,21.8174 63.5,21.5C 63.5,25.5 63.5,29.5 63.5,33.5C 62.1667,33.5 60.8333,33.5 59.5,33.5C 57.6824,42.6069 55.0158,51.4403 51.5,60C 38.1667,60.6667 24.8333,60.6667 11.5,60C 7.98425,51.4403 5.31758,42.6069 3.5,33.5C 2.16667,33.5 0.833333,33.5 -0.5,33.5C -0.5,29.5 -0.5,25.5 -0.5,21.5C 2.57186,21.8174 5.57186,21.4841 8.5,20.5C 13.5104,14.4602 18.5104,8.46018 23.5,2.5C 25.7236,3.08074 26.557,4.41408 26,6.5C 22.3869,11.421 18.5536,16.0877 14.5,20.5 Z M 59.5,29.5 C 40.8333,29.5 22.1667,29.5 3.5,29.5C 3.5,28.5 3.5,27.5 3.5,26.5C 22.1667,26.5 40.8333,26.5 59.5,26.5C 59.5,27.5 59.5,28.5 59.5,29.5 Z M 8.5,33.5 C 23.8333,33.5 39.1667,33.5 54.5,33.5C 52.9104,40.604 50.9104,47.604 48.5,54.5C 37.1667,55.8333 25.8333,55.8333 14.5,54.5C 12.0896,47.604 10.0896,40.604 8.5,33.5 Z"/></g>
<g><path style="opacity:0.4" fill="#44427a" d="M 14.5,20.5 C 25.6544,21.4948 36.9877,21.8281 48.5,21.5C 37.5816,22.499 25.915,22.8323 13.5,22.5C 13.2465,20.5992 13.5798,19.9326 14.5,20.5 Z"/></g>
<g><path style="opacity:0.4" fill="#564678" d="M 59.5,29.5 C 59.5,28.5 59.5,27.5 59.5,26.5C 40.8333,26.5 22.1667,26.5 3.5,26.5C 3.5,27.5 3.5,28.5 3.5,29.5C 2.56552,28.4324 2.23219,27.099 2.5,25.5C 21.8333,25.5 41.1667,25.5 60.5,25.5C 60.7678,27.099 60.4345,28.4324 59.5,29.5 Z M 59.5,29.5 C 40.8333,29.5 22.1667,29.5 3.5,29.5C 3.5,28.5 3.5,27.5 3.5,26.5C 22.1667,26.5 40.8333,26.5 59.5,26.5C 59.5,27.5 59.5,28.5 59.5,29.5 Z"/></g>
<g><path style="opacity:1" fill="#8bacc7" d="M 17.5,36.5 C 20.3882,36.2196 21.8882,37.5529 22,40.5C 22.889,44.1516 23.2224,47.8183 23,51.5C 21.6667,52.8333 20.3333,52.8333 19,51.5C 18.4302,47.2403 17.5969,43.0737 16.5,39C 17.2524,38.3292 17.5858,37.4959 17.5,36.5 Z"/></g>
<g><path style="opacity:1" fill="#a6aac8" d="M 30.5,36.5 C 31.4959,36.4142 32.3292,36.7476 33,37.5C 33.4993,42.4889 33.6659,47.4889 33.5,52.5C 32.1667,52.5 30.8333,52.5 29.5,52.5C 29.2175,47.0735 29.5509,41.7401 30.5,36.5 Z"/></g>
<g><path style="opacity:1" fill="#90aed1" d="M 42.5,36.5 C 44.6348,36.147 45.9681,36.9803 46.5,39C 45.6135,43.1513 44.7802,47.3179 44,51.5C 41.5237,53.0628 40.0237,52.3962 39.5,49.5C 40.183,45.0543 41.183,40.721 42.5,36.5 Z"/></g>
</svg>
