<svg width="100" height="100" viewBox="0 0 100 100" fill="none" xmlns="http://www.w3.org/2000/svg">
<path d="M24.9376 90.7505V38.563H10.4065C8.68779 38.563 7.28149 39.9692 7.28149 41.688V87.6255C7.28149 89.3442 8.68779 90.7505 10.4065 90.7505H24.9376Z" fill="#C6E5F5"/>
<path d="M90.5309 43.3434C88.3747 40.3121 84.9684 38.562 81.2497 38.562H58.9372L59.0622 38.2496C61.7184 31.9683 63.2809 28.187 63.2809 19.3121C63.2809 19.3121 63.2809 19.2809 63.2809 19.2496V19.2183C63.2809 13.7495 59.3122 8.9995 55.8747 5.4995C53.1247 2.71821 48.9997 2.49962 46.0309 4.96829C43.2184 7.31204 43.2184 10.6245 43.2184 13.2496C43.2184 13.9683 43.2184 14.687 43.1559 15.437L42.9372 18.5309C40.562 23.9996 37.812 26.7184 34.3433 30.0932C33.3746 31.062 32.3122 32.0933 31.187 33.2495V90.7496H61.1872C69.8747 90.7496 77.8122 85.6246 81.3747 77.6871L92.0934 53.8121C93.2809 50.2809 92.7184 46.3746 90.5309 43.3434Z" fill="#C6E5F5"/>
</svg>
