<svg xmlns="http://www.w3.org/2000/svg" xmlns:xlink="http://www.w3.org/1999/xlink" width="30px" height="30px" viewBox="0 0 40 40">
    <defs>
        <path id="a" d="M0 0h48v48H0z"/>
        <path id="b" d="M24 44C12.973 44 4 35.027 4 24S12.973 4 24 4s20 8.973 20 20-8.973 20-20 20z"/>
    </defs>
    <g fill="none" fill-rule="evenodd" transform="translate(-4 -4)">
        <mask id="c" fill="#fff">
            <use xlink:href="#b"/>
        </mask>
        <use fill="#0B8ED5" fill-rule="nonzero" xlink:href="#b"/>
        <g fill-rule="nonzero" mask="url(#c)">
            <path fill="#FFF" d="M28.58 14h-9.023A5.564 5.564 0 0 0 14 19.557v9.024a5.564 5.564 0 0 0 5.557 5.557h9.024a5.564 5.564 0 0 0 5.557-5.557v-9.024A5.564 5.564 0 0 0 28.581 14z"/>
            <path fill="#0B8ED5" d="M24.07 18.88a5.195 5.195 0 0 0-5.19 5.19 5.195 5.195 0 0 0 5.19 5.188 5.195 5.195 0 0 0 5.188-5.189 5.195 5.195 0 0 0-5.189-5.189zm0 8.591a3.406 3.406 0 0 1-3.403-3.402 3.406 3.406 0 0 1 3.402-3.402 3.406 3.406 0 0 1 3.402 3.402 3.406 3.406 0 0 1-3.402 3.402zM29.476 17.365a1.315 1.315 0 0 0-1.31 1.31c0 .345.14.683.384.927.243.243.582.384.926.384.345 0 .682-.14.927-.384a1.32 1.32 0 0 0 .383-.927c0-.345-.14-.683-.383-.926a1.316 1.316 0 0 0-.927-.384z"/>
        </g>
    </g>
</svg>
